<svg width="31" height="27" viewBox="0 0 31 27" fill="none" xmlns="http://www.w3.org/2000/svg">
<path d="M14.1197 26.5256L0.866832 13.2727L14.1197 0.0198851L16.6765 2.5483L7.79865 11.4261H30.0998V15.1193H7.79865L16.6765 23.983L14.1197 26.5256Z" fill="white"/>
<path d="M14.1197 26.5256L13.4126 27.2327L14.1177 27.9378L14.8248 27.2346L14.1197 26.5256ZM0.866832 13.2727L0.159726 12.5656L-0.547381 13.2727L0.159726 13.9798L0.866832 13.2727ZM14.1197 0.0198851L14.8228 -0.691161L14.1157 -1.39039L13.4126 -0.687222L14.1197 0.0198851ZM16.6765 2.5483L17.3836 3.2554L18.0947 2.54433L17.3796 1.83725L16.6765 2.5483ZM7.79865 11.4261L7.09154 10.719L5.38444 12.4261H7.79865V11.4261ZM30.0998 11.4261H31.0998V10.4261H30.0998V11.4261ZM30.0998 15.1193V16.1193H31.0998V15.1193H30.0998ZM7.79865 15.1193V14.1193H5.3817L7.09211 15.827L7.79865 15.1193ZM16.6765 23.983L17.3816 24.692L18.0932 23.9844L17.383 23.2753L16.6765 23.983ZM14.8268 25.8185L1.57394 12.5656L0.159726 13.9798L13.4126 27.2327L14.8268 25.8185ZM1.57394 13.9798L14.8268 0.726992L13.4126 -0.687222L0.159726 12.5656L1.57394 13.9798ZM13.4165 0.730931L15.9733 3.25934L17.3796 1.83725L14.8228 -0.691161L13.4165 0.730931ZM15.9694 1.84119L7.09154 10.719L8.50576 12.1332L17.3836 3.2554L15.9694 1.84119ZM7.79865 12.4261H30.0998V10.4261H7.79865V12.4261ZM29.0998 11.4261V15.1193H31.0998V11.4261H29.0998ZM30.0998 14.1193H7.79865V16.1193H30.0998V14.1193ZM7.09211 15.827L15.97 24.6906L17.383 23.2753L8.50519 14.4116L7.09211 15.827ZM15.9714 23.2739L13.4145 25.8165L14.8248 27.2346L17.3816 24.692L15.9714 23.2739Z" fill="black"/>
</svg>
